<svg width="366" height="245" viewBox="0 0 366 245" fill="none" xmlns="http://www.w3.org/2000/svg">
<path d="M340.472 216.966C340.411 223.51 319.239 247.181 263.37 244.306C220.23 242.104 156.407 224.061 65.5975 170.176C62.8439 168.525 60.0902 166.873 57.2754 165.161C60.0902 155.436 61.1305 150.482 61.1917 143.387C112.532 132.867 197.895 139.534 260.8 158.249C269.367 160.818 277.445 163.571 285.032 166.568C318.26 179.718 340.778 196.843 340.472 216.966Z" fill="#E3F5FF"/>
<path d="M260.74 158.311C237.364 154.335 212.337 151.583 191.287 150.482C150.961 148.402 134.868 154.763 65.537 170.176C62.7833 168.525 60.0297 166.874 57.2148 165.161C60.0297 155.436 61.0699 150.482 61.1311 143.387C112.471 132.867 197.834 139.534 260.74 158.311Z" fill="#D9EBF4"/>
<path d="M268.205 175.987C256.089 164.733 237.12 165.406 225.86 177.516C214.601 189.626 215.274 208.587 227.39 219.841C239.506 231.095 258.476 230.422 269.735 218.312C280.994 206.201 280.321 187.241 268.205 175.987Z" fill="#6C005A"/>
<path d="M258.476 186.446C252.112 180.574 242.198 180.88 236.324 187.241C230.45 193.602 230.756 203.51 237.119 209.382C243.483 215.254 253.397 214.948 259.271 208.587C265.145 202.226 264.778 192.317 258.476 186.446Z" fill="#00034C"/>
<path d="M256.702 189.259C252.724 185.589 246.544 185.834 242.872 189.748C242.689 189.932 242.505 190.115 242.383 190.36C246.116 187.424 251.5 187.546 255.05 190.91C258.782 194.397 259.211 200.146 256.029 204.122C256.396 203.816 256.763 203.449 257.13 203.082C260.863 199.106 260.679 192.929 256.702 189.259Z" fill="#D5D7EF"/>
<path d="M266.491 178.556C255.66 168.464 238.71 169.075 228.613 179.901C228.124 180.452 227.634 181.002 227.206 181.553C237.425 173.54 252.234 173.907 262.024 183.02C272.366 192.623 273.406 208.403 264.778 219.29C265.879 218.434 266.859 217.516 267.838 216.477C277.934 205.651 277.322 188.648 266.491 178.556Z" fill="#7B266D"/>
<path d="M111.002 166.078C111.002 166.078 63.0277 137.638 15.665 143.142C63.5173 167.791 111.002 166.078 111.002 166.078Z" fill="#6C005A"/>
<path d="M103.721 164.977C92.9508 158.555 63.7621 143.203 33.7168 144.855C62.7219 145.895 89.83 157.76 103.721 164.977Z" fill="#7B266D"/>
<path d="M365.868 224.795C355.955 220.88 347.572 217.945 340.412 215.743C339.8 196.171 317.526 179.412 284.911 166.568C288.583 176.721 287.175 186.507 284.483 202.409C281.545 219.474 271.938 234.397 263.249 244.306C311.101 246.752 333.436 229.749 338.944 220.697C346.47 222.104 355.282 223.51 365.868 224.795Z" fill="#6C005A"/>
<path d="M338.025 215.192C333.558 201.614 302.839 183.999 299.351 180.758C295.863 177.516 292.253 176.476 291.519 174.397C318.627 185.1 337.229 198.984 338.025 215.192Z" fill="#7B266D"/>
<path d="M337.291 225.406C337.291 225.284 337.291 225.101 337.291 224.978C337.352 225.162 337.413 225.284 337.413 225.468C337.413 225.406 337.352 225.406 337.291 225.406Z" fill="#6C005A"/>
<path d="M100.906 190.177C100.906 190.177 86.7704 213.663 68.7799 211.4C50.8506 209.137 5.32371 177.944 0 172.867C0.367153 172.867 0.795497 172.929 1.28503 172.929C12.728 172.99 54.7669 166.445 57.1534 165.161C57.1534 165.161 57.1534 165.161 57.2146 165.161L57.2758 165.222L82.9765 179.901L100.906 190.177Z" fill="#6C005A"/>
<path d="M111.248 138.494L61.1318 143.265C60.7034 142.653 56.6035 139.717 50.9739 135.986C50.1784 135.436 49.3829 134.946 48.5874 134.396C36.4101 126.322 18.9092 115.435 12.79 112.928C12.6064 112.866 12.4228 112.805 12.2393 112.683C18.9704 110.298 70.1882 101.123 89.0966 105.466C89.4025 105.527 89.7085 105.588 90.0144 105.71C90.2592 105.772 90.5652 105.833 90.8099 105.955C108.005 111.276 111.248 138.494 111.248 138.494Z" fill="#6C005A"/>
<path d="M89.0354 134.029C76.0626 137.148 61.1318 136.353 48.5874 134.396C36.4101 126.322 18.9092 115.435 12.79 112.928C12.6064 112.866 12.4228 112.805 12.2393 112.683C18.9704 110.298 70.1882 101.123 89.0966 105.466C89.4025 105.527 89.7085 105.588 90.0144 105.71C101.335 113.967 100.111 131.399 89.0354 134.029Z" fill="#59004F"/>
<path d="M82.9766 179.901C69.3308 180.085 22.7024 180.146 1.28516 172.929C12.7281 172.99 54.7671 166.445 57.1536 165.161C57.2147 165.161 57.2147 165.161 57.2759 165.161L82.9766 179.901Z" fill="#59004F"/>
<path d="M154.45 121.796L149.432 117.698C147.045 115.741 146.495 112.683 148.269 110.97L159.712 99.7774C161.487 98.0649 164.852 98.3095 167.3 100.267L170.176 102.652L172.318 104.365C174.704 106.322 175.255 109.38 173.48 111.093L162.038 122.285C160.263 123.998 156.836 123.753 154.45 121.796Z" fill="#D5D7EF"/>
<path d="M182.414 105.282L174.459 107.79C174.214 106.567 173.48 105.343 172.317 104.365L170.175 102.591L167.299 100.206C165.647 98.86 163.567 98.3096 161.792 98.6765C163.444 97.9426 166.014 97.6368 169.992 98.2484L182.414 105.282Z" fill="white"/>
<path d="M273.59 75.9239C271.999 81.3063 269.796 86.2605 266.92 90.7866C254.069 111.399 229.409 122.408 204.871 117.454C203.219 117.148 201.628 116.72 199.975 116.23C168.584 106.995 150.532 74.0891 159.711 42.6512C161.241 37.5135 163.321 32.7428 166.014 28.4002C179.598 6.07569 207.013 -5.30064 233.325 2.40591C234.671 2.77288 236.018 3.26219 237.303 3.75149C266.246 14.3939 282.401 45.8317 273.59 75.9239Z" fill="white"/>
<path d="M263.249 22.5897C282.402 46.8102 279.771 82.0402 256.579 103.141C252.418 106.872 247.951 109.992 243.178 112.316C229.349 113.05 215.275 107.79 205.178 96.7805C187.432 77.2695 188.84 47.0549 208.36 29.2564C223.78 15.2501 245.871 13.2317 263.249 22.5897Z" fill="#00034C"/>
<path d="M271.938 60.8778C272.305 46.9938 265.39 33.0486 254.376 27.2993C252.968 26.5653 251.5 25.9537 250.031 25.5867C250.888 25.1586 256.518 25.7091 258.476 26.81C268.94 32.9875 274.63 47.7889 271.938 60.8778Z" fill="#797EB7"/>
<path d="M201.505 112.01C197.895 104.732 191.164 97.1476 188.104 98.3709C188.104 98.3709 183.821 100.817 178.252 104.61C177.09 105.405 175.805 106.261 174.581 107.178C174.458 107.24 174.336 107.362 174.214 107.423C162.526 115.802 148.452 127.974 153.653 135.497C153.653 135.558 153.714 135.619 153.775 135.619C163.689 149.259 179.966 161.797 185.412 155.314C187.615 152.623 191.347 146.078 194.774 138.8C194.958 138.433 195.08 138.066 195.264 137.699C199.792 127.485 203.586 116.108 201.505 112.01ZM175.07 108.402L176.172 116.964C175.988 116.597 175.743 116.231 175.56 115.925C173.969 113.111 174.03 110.542 175.07 108.402Z" fill="white"/>
<path d="M188.595 135.191C177.825 123.387 165.526 112.989 157.693 121.735C151.574 128.585 142.64 141.735 163.445 150.298C161.732 151.95 160.63 152.867 156.408 153.112C152.186 153.356 151.268 152.072 148.147 153.051C143.864 154.396 140.131 167.179 140.192 169.565C140.253 171.95 148.759 175.192 150.962 171.461C152.125 169.503 153.226 167.485 154.266 165.467C167.79 165.344 193.429 163.693 197.957 152.806C200.283 147.485 199.365 146.995 188.595 135.191Z" fill="white"/>
<path d="M169.196 150.176C167.605 152.072 166.626 153.112 162.343 153.846C158.059 154.58 156.958 153.356 153.898 154.763C149.676 156.659 147.289 170.176 147.657 172.623C147.657 172.684 147.657 172.806 147.718 172.867C144.413 173.296 139.824 171.094 139.824 169.32C139.763 166.935 143.496 154.151 147.779 152.806C150.839 151.827 151.818 153.112 156.04 152.867C160.262 152.622 161.302 151.705 163.077 150.054C142.272 141.491 151.145 128.341 157.325 121.49C159.283 119.289 162.771 116.414 166.014 114.824C164.546 115.496 161.241 120.022 160.079 121.674C154.51 129.319 146.861 143.754 169.196 150.176Z" fill="#D5D7EF"/>
<path d="M220.415 145.772C218.273 144.365 212.031 141.063 208.605 138.127C205.484 135.497 196.121 119.839 190.492 108.952C184.801 98.065 167.3 107.239 173.725 117.576C180.089 127.851 188.166 135.741 203.587 144.243C207.87 146.628 208.115 149.381 210.563 152.011C218.089 160.146 226.106 149.503 220.415 145.772Z" fill="white"/>
<path d="M178.62 104.426C175.132 107.912 157.937 117.943 153.593 135.436C148.391 127.913 162.465 115.741 174.153 107.362C174.275 107.239 174.337 107.178 174.459 107.056C175.499 105.955 176.784 105.099 178.253 104.548C178.375 104.548 178.559 104.487 178.62 104.426Z" fill="#D5D7EF"/>
<path d="M214.172 154.396C212.949 153.968 211.602 153.112 210.317 151.766C207.87 149.136 207.625 146.323 203.341 143.998C200.159 142.286 197.283 140.512 194.713 138.8C191.531 136.659 188.716 134.579 186.208 132.377C185.84 131.215 185.412 129.992 185.045 128.769C187.921 131.766 191.225 134.702 195.264 137.699C197.956 139.717 201.016 141.674 204.382 143.754C208.604 146.323 208.726 149.075 211.052 151.827C211.969 153.051 213.071 153.907 214.172 154.396Z" fill="#D5D7EF"/>
<path d="M204.871 117.393C203.219 117.087 201.628 116.659 199.975 116.169C168.584 106.995 150.532 74.0892 159.711 42.6514C161.241 37.5137 163.321 32.743 166.014 28.4004C162.893 51.3366 162.526 97.8205 204.871 117.393Z" fill="#D5D7EF"/>
</svg>
