<svg width="193" height="193" viewBox="0 0 193 193" fill="none" xmlns="http://www.w3.org/2000/svg">
<path d="M109.253 130.118V39.7741C109.253 39.5084 109.253 39.2427 109.253 38.9769C109.253 38.8441 109.253 38.5784 109.253 38.4455C108.996 32.2011 103.979 27.1525 97.8057 27.1525C91.8892 27.1525 87.0017 31.8025 86.3586 37.7812C86.3586 38.0469 86.3586 38.1798 86.3586 38.4455V64.2202V128.79C79.5417 132.643 75.04 140.083 75.04 148.586C75.04 161.075 84.8151 171.039 96.9054 171.039C108.996 171.039 118.642 160.942 118.642 148.586C118.513 140.88 114.912 134.104 109.253 130.118ZM96.7767 164.263C88.4165 164.263 81.5996 157.222 81.5996 148.586C81.5996 144.069 83.4003 140.083 86.3586 137.293C88.4165 135.3 90.9889 133.839 93.9471 133.307V126.398V111.252V50.1371V39.3755V38.5784C94.2043 36.5855 95.7478 34.9912 97.8057 34.9912C99.735 34.9912 101.407 36.4526 101.664 38.4455V39.5084V50.1371V64.2202V126.531V133.706C104.494 134.769 106.938 136.496 108.738 139.02C110.668 141.677 111.954 144.999 111.954 148.586C111.954 157.222 105.137 164.263 96.7767 164.263Z" fill="white"/>
<path d="M96.8405 0.990356C43.8113 0.990356 0.916016 43.8857 0.916016 96.9148C0.916016 149.944 43.8113 192.839 96.8405 192.839C149.87 192.839 192.765 149.944 192.765 96.9148C192.765 43.8857 149.731 0.990356 96.8405 0.990356ZM96.8405 184.094C48.67 184.094 9.52284 145.085 9.52284 96.776C9.52284 48.6055 48.5312 9.45836 96.8405 9.45836C145.011 9.45836 184.158 48.4667 184.158 96.776C184.019 145.085 145.011 184.094 96.8405 184.094Z" fill="white"/>
</svg>
