<svg width="184" height="185" viewBox="0 0 184 185" fill="none" xmlns="http://www.w3.org/2000/svg">
<path d="M92.033 0.990356C41.4143 0.990356 0.46875 41.9359 0.46875 92.5546C0.46875 143.173 41.4143 184.119 92.033 184.119C142.652 184.119 183.597 143.173 183.597 92.5546C183.597 41.9359 142.519 0.990356 92.033 0.990356ZM92.033 175.771C46.0521 175.771 8.68436 138.536 8.68436 92.4221C8.68436 46.4412 45.9196 9.07345 92.033 9.07345C138.014 9.07345 175.382 46.3087 175.382 92.4221C175.249 138.536 138.014 175.771 92.033 175.771Z" fill="white"/>
<path d="M164.428 49.1131C164.428 49.1131 164.428 48.9716 164.428 49.1131L164.159 48.9716L144.785 42.7463L137.924 40.4825C137.79 40.4825 137.79 40.4825 137.655 40.341C136.175 39.9166 134.561 40.7655 134.157 42.3218C134.023 42.8877 134.023 43.4537 134.157 44.0196L134.83 51.5184L136.713 72.7412V72.8827C136.713 72.8827 136.713 72.8827 136.713 73.0242C136.982 74.5805 138.328 75.5709 139.673 75.4295C141.153 75.288 142.229 73.8731 142.229 72.3168V72.1753V72.0338L141.557 64.818L140.48 52.9332C141.96 54.914 143.306 56.8948 144.651 59.0171C162.41 88.7291 153.799 127.921 125.547 146.455C97.2942 165.131 60.0277 156.076 42.4034 126.364C40.1163 122.686 38.3673 118.724 37.022 114.762C37.022 114.338 36.7529 113.914 36.6184 113.489V113.348C35.6766 111.933 33.9276 111.508 32.4477 112.499C31.1024 113.348 30.5642 115.328 31.3715 116.743C32.9859 121.129 34.8694 125.374 37.4256 129.618C56.9333 162.302 97.8323 172.064 128.776 151.69C159.719 131.316 169.136 88.1632 149.763 55.6215C148.418 53.3577 146.938 51.0939 145.324 49.1131L155.817 52.5088L162.41 54.6311C162.41 54.6311 162.41 54.6311 162.544 54.6311H162.679C164.159 55.0555 165.639 54.2066 166.042 52.6503C166.446 51.2354 165.773 49.6791 164.428 49.1131Z" fill="white"/>
</svg>
