<svg width="184" height="184" viewBox="0 0 184 184" fill="none" xmlns="http://www.w3.org/2000/svg">
<path d="M174.282 132.97C179.098 132.97 183.002 129.066 183.002 124.25C183.002 119.434 179.098 115.53 174.282 115.53C169.466 115.53 165.562 119.434 165.562 124.25C165.562 129.066 169.466 132.97 174.282 132.97Z" fill="white"/>
<path d="M91.5983 73.0101C80.7266 73.0101 71.9014 81.8649 71.9014 92.773C71.9014 103.681 80.7266 112.536 91.5983 112.536C102.47 112.536 111.295 103.681 111.295 92.773C111.295 81.8649 102.47 73.0101 91.5983 73.0101ZM91.5983 107.018C83.7963 107.018 77.4012 100.601 77.4012 92.773C77.4012 84.9448 83.7963 78.5283 91.5983 78.5283C99.4004 78.5283 105.796 84.9448 105.796 92.773C105.796 100.601 99.4004 107.018 91.5983 107.018Z" fill="white"/>
<path d="M77.6556 71.3405C76.1208 72.3671 74.7139 73.5221 73.5627 74.8054L73.4348 74.5487L62.691 58.3791L62.5631 58.2508C61.6678 56.9675 62.0515 55.2992 63.3306 54.5292C64.6096 53.7592 66.2723 54.0159 67.0397 55.2992C67.0397 55.2992 67.0397 55.4275 67.1676 55.5559L71.0047 61.3307L77.6556 71.3405Z" fill="white"/>
<path d="M85.9716 67.7467L85.5879 48.2405C85.5879 48.2405 85.5879 48.1122 85.5879 47.9839C85.5879 46.4439 86.739 45.2889 88.2738 45.2889C89.8087 45.2889 90.9598 46.4439 90.9598 47.9839C90.9598 48.1122 90.9598 48.1122 90.9598 48.2405L91.0877 55.1704L91.2156 67.2334C89.425 67.105 87.6343 67.2334 85.9716 67.7467Z" fill="white"/>
<path d="M115.132 55.0433L115.004 55.1716L111.295 61.0748L105.155 70.8279C103.62 69.9296 101.958 69.1596 100.295 68.5179L110.399 52.4767C110.399 52.4767 110.399 52.3484 110.527 52.22C111.295 50.9367 112.957 50.5518 114.236 51.3217C115.515 52.0917 115.899 53.76 115.132 55.0433Z" fill="white"/>
<path d="M131.503 74.1624C131.503 74.1624 131.375 74.1624 131.247 74.1624L124.98 77.114L115.003 81.7339C114.236 80.0656 113.341 78.5256 112.189 77.114L128.817 69.2859L128.945 69.1575C130.352 68.5159 131.886 69.1576 132.526 70.4409C133.421 71.9808 132.91 73.5208 131.503 74.1624Z" fill="white"/>
<path d="M137.899 96.8779C137.643 98.4179 136.364 99.4445 134.829 99.1879C134.701 99.1879 134.701 99.1879 134.573 99.1879L127.795 98.2896L117.307 96.8779C117.562 95.5946 117.562 94.3113 117.562 93.028C117.562 92.5147 117.562 92.0014 117.562 91.4881L135.341 94.0547H135.597C137.132 94.0547 138.155 95.4663 137.899 96.8779Z" fill="white"/>
<path d="M127.922 121.775C126.899 122.93 125.236 123.058 124.085 122.031L123.957 121.903L118.841 117.411L110.783 110.481C112.062 109.198 113.085 107.658 113.981 106.118L127.411 117.925L127.538 118.053C128.817 118.951 128.945 120.62 127.922 121.775Z" fill="white"/>
<path d="M106.05 137.174C104.643 137.559 103.108 136.789 102.725 135.378C102.725 135.378 102.725 135.249 102.725 135.121L100.806 128.448L97.7363 117.925C99.527 117.54 101.19 116.898 102.852 116.128L107.841 133.581C107.841 133.581 107.969 133.709 107.969 133.838C108.352 135.249 107.457 136.789 106.05 137.174Z" fill="white"/>
<path d="M88.147 118.438L82.7751 136.147C82.7751 136.275 82.7751 136.275 82.7751 136.404C82.3914 137.815 80.8565 138.585 79.4496 138.2C78.0427 137.815 77.2753 136.275 77.659 134.864C77.659 134.735 77.659 134.735 77.7869 134.607L79.8333 128.062L83.1588 117.154C84.5657 117.668 86.3563 118.181 88.147 118.438Z" fill="white"/>
<path d="M74.9717 112.277L60.3908 124.597L60.2629 124.725C59.1118 125.752 57.449 125.495 56.5537 124.468C55.5305 123.313 55.7863 121.645 56.8095 120.618L56.9374 120.49L62.1814 115.998L71.2625 108.299C72.4136 109.71 73.5647 111.122 74.9717 112.277Z" fill="white"/>
<path d="M67.169 100.213L47.8558 102.651C47.8558 102.651 47.7279 102.651 47.6 102.651C46.0652 102.779 44.7861 101.753 44.5303 100.341C44.4024 98.801 45.4256 97.5177 46.8326 97.3894C46.9605 97.3894 46.9605 97.3894 47.0884 97.3894L53.8672 96.4911L66.1458 94.9511C66.4016 96.7477 66.6574 98.5443 67.169 100.213Z" fill="white"/>
<path d="M68.9592 81.0933C68.1918 82.6332 67.4244 84.3015 67.0407 86.0981L66.7849 85.9698L49.2623 77.5C49.2623 77.5 49.1344 77.5 49.0065 77.3717C47.7274 76.73 47.0879 75.0618 47.7274 73.7785C48.367 72.4952 50.0297 71.8535 51.3087 72.4952C51.4366 72.4952 51.4366 72.6235 51.5645 72.6235L57.7038 75.5751L68.9592 81.0933Z" fill="white"/>
<path d="M148.547 112.692L141.404 110.069C140.086 109.584 138.632 110.258 138.148 111.576C137.664 112.893 138.336 114.347 139.655 114.831L146.797 117.455C148.115 117.939 149.57 117.267 150.054 115.949C150.535 114.631 149.863 113.176 148.547 112.692Z" fill="white"/>
<path d="M134.261 107.449L127.118 104.825C125.801 104.341 124.344 105.014 123.86 106.332C123.377 107.649 124.051 109.104 125.369 109.588L132.512 112.212C133.828 112.695 135.284 112.023 135.768 110.706C136.25 109.388 135.576 107.932 134.261 107.449Z" fill="white"/>
<path d="M162.832 117.94L155.688 115.316C154.37 114.832 152.916 115.505 152.432 116.823C151.948 118.14 152.621 119.594 153.939 120.078L161.082 122.702C162.4 123.186 163.854 122.513 164.338 121.196C164.821 119.879 164.149 118.424 162.832 117.94Z" fill="white"/>
<path d="M92.2055 179.03C140.367 179.03 179.41 139.988 179.41 91.8261C179.41 43.6646 140.367 4.62207 92.2055 4.62207C44.0441 4.62207 5.00146 43.6646 5.00146 91.8261C5.00146 139.988 44.0441 179.03 92.2055 179.03Z" stroke="white" stroke-width="8.72041" stroke-miterlimit="10"/>
</svg>
