<svg width="188" height="188" viewBox="0 0 188 188" fill="none" xmlns="http://www.w3.org/2000/svg">
<path d="M93.9955 183.39C143.361 183.39 183.38 143.372 183.38 94.0062C183.38 44.6407 143.361 4.62207 93.9955 4.62207C44.63 4.62207 4.61133 44.6407 4.61133 94.0062C4.61133 143.372 44.63 183.39 93.9955 183.39Z" stroke="white" stroke-width="8.72041" stroke-miterlimit="10"/>
<path d="M114.167 78.7448H72.8992L52.5732 135.427H135.417L114.167 78.7448Z" fill="white"/>
<ellipse cx="93.9941" cy="70.0269" rx="15.2607" ry="13.0806" fill="white"/>
<path d="M93.9954 74.5106C95.8227 74.5106 97.4826 74.017 98.6894 73.2125C99.8953 72.4086 100.661 71.2842 100.661 70.0254C100.661 68.7665 99.8953 67.6422 98.6894 66.8382C97.4826 66.0337 95.8227 65.5402 93.9954 65.5402C92.1681 65.5402 90.5081 66.0337 89.3014 66.8382C88.0954 67.6422 87.3301 68.7665 87.3301 70.0254C87.3301 71.2842 88.0954 72.4086 89.3014 73.2125C90.5081 74.017 92.1681 74.5106 93.9954 74.5106Z" stroke="black" stroke-width="0.25"/>
</svg>
