<svg width="192" height="195" viewBox="0 0 192 195" fill="none" xmlns="http://www.w3.org/2000/svg">
<path d="M59.1807 11.055C59.1807 11.055 97.7695 -12.9087 151.2 20.6199" stroke="white" stroke-width="4.3602" stroke-miterlimit="10"/>
<path d="M174.025 44.6856C174.025 44.6856 180.986 56.8217 182.828 61.0385" stroke="white" stroke-width="4.3602" stroke-miterlimit="10"/>
<path d="M189.586 93.1278C189.586 93.1278 191.531 133.033 166.044 160.288" stroke="white" stroke-width="4.3602" stroke-miterlimit="10"/>
<path d="M71.874 188.058C71.874 188.058 110.565 196.8 141.58 179.315" stroke="white" stroke-width="4.3602" stroke-miterlimit="10"/>
<path d="M29.0879 162.861C29.0879 162.861 41.4732 173.866 46.8981 177.054" stroke="white" stroke-width="4.3602" stroke-miterlimit="10"/>
<path d="M11.0752 136.736L15.3742 144.758" stroke="white" stroke-width="4.3602" stroke-miterlimit="10"/>
<path d="M16.7034 46.333C16.7034 46.333 0.633182 68.034 3.19213 111.539" stroke="white" stroke-width="4.3602" stroke-miterlimit="10"/>
<path d="M81.3921 36.5624C81.3921 36.5624 15.8831 56.6179 40.5513 124.292" stroke="white" stroke-width="4.3602" stroke-miterlimit="10"/>
<path d="M33.7949 128.2L46.8967 120.795V134.679L33.7949 128.2Z" stroke="white" stroke-width="4.3602" stroke-miterlimit="10"/>
<path d="M149.973 74.8228C154.213 74.8228 157.65 71.3693 157.65 67.1092C157.65 62.849 154.213 59.3955 149.973 59.3955C145.733 59.3955 142.296 62.849 142.296 67.1092C142.296 71.3693 145.733 74.8228 149.973 74.8228Z" fill="white"/>
<path d="M95.7227 166.46C99.9625 166.46 103.4 163.007 103.4 158.746C103.4 154.486 99.9625 151.033 95.7227 151.033C91.4829 151.033 88.0459 154.486 88.0459 158.746C88.0459 163.007 91.4829 166.46 95.7227 166.46Z" fill="white"/>
<path d="M42.9073 74.1017C47.1471 74.1017 50.5841 70.6482 50.5841 66.3881C50.5841 62.1279 47.1471 58.6744 42.9073 58.6744C38.6675 58.6744 35.2305 62.1279 35.2305 66.3881C35.2305 70.6482 38.6675 74.1017 42.9073 74.1017Z" fill="white"/>
<path d="M42.9067 69.9867C44.8853 69.9867 46.4893 68.375 46.4893 66.387C46.4893 64.3989 44.8853 62.7873 42.9067 62.7873C40.9282 62.7873 39.3242 64.3989 39.3242 66.387C39.3242 68.375 40.9282 69.9867 42.9067 69.9867Z" fill="#00034C"/>
<path d="M50.9932 139.308C50.9932 139.308 100.227 187.133 147.209 132.726" stroke="white" stroke-width="4.3602" stroke-miterlimit="10"/>
<path d="M153.862 136.736L141.067 128.817L153.146 122.132L153.862 136.736Z" stroke="white" stroke-width="4.3602" stroke-miterlimit="10"/>
<path d="M95.6206 162.345C97.5992 162.345 99.2031 160.733 99.2031 158.745C99.2031 156.757 97.5992 155.146 95.6206 155.146C93.642 155.146 92.0381 156.757 92.0381 158.745C92.0381 160.733 93.642 162.345 95.6206 162.345Z" fill="#00034C"/>
<path d="M154.987 115.754C154.987 115.754 172.286 49.2112 102.068 34.8124" stroke="white" stroke-width="4.3602" stroke-miterlimit="10"/>
<path d="M102.273 26.9971L101.659 42.1159L89.8877 34.8136L102.273 26.9971Z" stroke="white" stroke-width="4.3602" stroke-miterlimit="10"/>
<path d="M149.974 70.7078C151.953 70.7078 153.557 69.0961 153.557 67.1081C153.557 65.12 151.953 63.5084 149.974 63.5084C147.996 63.5084 146.392 65.12 146.392 67.1081C146.392 69.0961 147.996 70.7078 149.974 70.7078Z" fill="#00034C"/>
<path d="M96.0312 62.7873V72.7636" stroke="white" stroke-width="4.3602" stroke-miterlimit="10"/>
<path d="M96.0312 121V130.976" stroke="white" stroke-width="4.3602" stroke-miterlimit="10"/>
<path d="M130.32 96.9357H120.392" stroke="white" stroke-width="4.3602" stroke-miterlimit="10"/>
<path d="M71.5664 96.9357H61.6377" stroke="white" stroke-width="4.3602" stroke-miterlimit="10"/>
<path d="M96.0306 112.258C104.454 112.258 111.282 105.444 111.282 97.0369C111.282 88.6302 104.454 81.8153 96.0306 81.8153C87.6075 81.8153 80.7793 88.6302 80.7793 97.0369C80.7793 105.444 87.6075 112.258 96.0306 112.258Z" fill="white"/>
<path d="M96.0294 106.294C101.174 106.294 105.344 102.104 105.344 96.9348C105.344 91.7659 101.174 87.5756 96.0294 87.5756C90.8851 87.5756 86.7148 91.7659 86.7148 96.9348C86.7148 102.104 90.8851 106.294 96.0294 106.294Z" fill="#00034C"/>
<path d="M75.8643 76.7761L86.6118 87.8838" stroke="white" stroke-width="4.3602" stroke-miterlimit="10"/>
<path d="M105.344 105.985L116.091 117.093" stroke="white" stroke-width="4.3602" stroke-miterlimit="10"/>
<path d="M116.501 76.8787L105.344 87.6778" stroke="white" stroke-width="4.3602" stroke-miterlimit="10"/>
<path d="M87.2283 106.396L76.0713 117.195" stroke="white" stroke-width="4.3602" stroke-miterlimit="10"/>
<path d="M67.0625 67.416L70.645 71.2214" stroke="white" stroke-width="4.3602" stroke-miterlimit="10"/>
<path d="M121.723 122.34L125.305 126.145" stroke="white" stroke-width="4.3602" stroke-miterlimit="10"/>
<path d="M125.609 68.1371L121.822 71.8397" stroke="white" stroke-width="4.3602" stroke-miterlimit="10"/>
<path d="M71.3636 123.571L67.6787 127.171" stroke="white" stroke-width="4.3602" stroke-miterlimit="10"/>
<path d="M175.563 95.2902L184.162 78.6288" stroke="white" stroke-width="4.3602" stroke-miterlimit="10"/>
<path d="M161.744 34.5047L166.453 16.1976" stroke="white" stroke-width="4.3602" stroke-miterlimit="10"/>
<path d="M185.799 16.4036L166.965 16.095" stroke="white" stroke-width="4.3602" stroke-miterlimit="10"/>
<path d="M142.399 38.8234L161.131 38.5148" stroke="white" stroke-width="4.3602" stroke-miterlimit="10"/>
<path d="M127.865 24.6314L142.298 36.6647" stroke="white" stroke-width="4.3602" stroke-miterlimit="10"/>
<path d="M32.1582 24.4271L34.8195 5.81146" stroke="white" stroke-width="4.3602" stroke-miterlimit="10"/>
<path d="M27.964 26.6893L9.84668 31.1118" stroke="white" stroke-width="4.3602" stroke-miterlimit="10"/>
<path d="M8.61684 36.5613C11.1607 36.5613 13.2229 34.4892 13.2229 31.9331C13.2229 29.377 11.1607 27.3049 8.61684 27.3049C6.07296 27.3049 4.01074 29.377 4.01074 31.9331C4.01074 34.4892 6.07296 36.5613 8.61684 36.5613Z" fill="white"/>
<path d="M34.6157 43.6574L10.0498 33.5783" stroke="white" stroke-width="4.3602" stroke-miterlimit="10"/>
<path d="M39.3242 43.6579L59.284 26.0708" stroke="white" stroke-width="4.3602" stroke-miterlimit="10"/>
<path d="M59.181 25.0438L38.4023 8.38235" stroke="white" stroke-width="4.3602" stroke-miterlimit="10"/>
<path d="M18.5469 99.8129L18.6497 80.9916" stroke="white" stroke-width="4.3602" stroke-miterlimit="10"/>
<path d="M7.5957 123.264L17.0126 107.014" stroke="white" stroke-width="4.3602" stroke-miterlimit="10"/>
<path d="M13.1201 164.093L27.3478 151.854" stroke="white" stroke-width="4.3602" stroke-miterlimit="10"/>
<path d="M33.7949 151.033L50.684 159.158" stroke="white" stroke-width="4.3602" stroke-miterlimit="10"/>
<path d="M53.3477 164.301L53.7571 183.122" stroke="white" stroke-width="4.3602" stroke-miterlimit="10"/>
<path d="M153.865 170.882L154.275 189.703" stroke="white" stroke-width="4.3602" stroke-miterlimit="10"/>
<path d="M140.148 158.745L154.171 171.293" stroke="white" stroke-width="4.3602" stroke-miterlimit="10"/>
<path d="M156.627 171.808L175.461 171.705" stroke="white" stroke-width="4.3602" stroke-miterlimit="10"/>
<path d="M37.3795 48.4923C39.9234 48.4923 41.9856 46.4202 41.9856 43.8641C41.9856 41.308 39.9234 39.2359 37.3795 39.2359C34.8357 39.2359 32.7734 41.308 32.7734 43.8641C32.7734 46.4202 34.8357 48.4923 37.3795 48.4923Z" fill="white"/>
<path d="M36.6618 11.8784C39.2056 11.8784 41.2679 9.80633 41.2679 7.25026C41.2679 4.69418 39.2056 2.62207 36.6618 2.62207C34.1179 2.62207 32.0557 4.69418 32.0557 7.25026C32.0557 9.80633 34.1179 11.8784 36.6618 11.8784Z" fill="white"/>
<path d="M58.9782 30.6984C61.522 30.6984 63.5843 28.6263 63.5843 26.0702C63.5843 23.5142 61.522 21.442 58.9782 21.442C56.4343 21.442 54.3721 23.5142 54.3721 26.0702C54.3721 28.6263 56.4343 30.6984 58.9782 30.6984Z" fill="white"/>
<path d="M127.864 29.2591C130.408 29.2591 132.47 27.1869 132.47 24.6309C132.47 22.0748 130.408 20.0027 127.864 20.0027C125.32 20.0027 123.258 22.0748 123.258 24.6309C123.258 27.1869 125.32 29.2591 127.864 29.2591Z" fill="white"/>
<path d="M142.298 42.1164C144.841 42.1164 146.904 40.0443 146.904 37.4882C146.904 34.9321 144.841 32.86 142.298 32.86C139.754 32.86 137.691 34.9321 137.691 37.4882C137.691 40.0443 139.754 42.1164 142.298 42.1164Z" fill="white"/>
<path d="M161.131 41.2927C163.674 41.2927 165.737 39.2206 165.737 36.6645C165.737 34.1084 163.674 32.0363 161.131 32.0363C158.587 32.0363 156.524 34.1084 156.524 36.6645C156.524 39.2206 158.587 41.2927 161.131 41.2927Z" fill="white"/>
<path d="M165.941 20.7227C168.485 20.7227 170.547 18.6505 170.547 16.0945C170.547 13.5384 168.485 11.4663 165.941 11.4663C163.397 11.4663 161.335 13.5384 161.335 16.0945C161.335 18.6505 163.397 20.7227 165.941 20.7227Z" fill="white"/>
<path d="M185.798 20.7227C188.342 20.7227 190.405 18.6505 190.405 16.0945C190.405 13.5384 188.342 11.4663 185.798 11.4663C183.255 11.4663 181.192 13.5384 181.192 16.0945C181.192 18.6505 183.255 20.7227 185.798 20.7227Z" fill="white"/>
<path d="M175.561 99.9159C178.105 99.9159 180.167 97.8438 180.167 95.2877C180.167 92.7316 178.105 90.6595 175.561 90.6595C173.017 90.6595 170.955 92.7316 170.955 95.2877C170.955 97.8438 173.017 99.9159 175.561 99.9159Z" fill="white"/>
<path d="M184.162 83.2564C186.706 83.2564 188.768 81.1843 188.768 78.6282C188.768 76.0721 186.706 74 184.162 74C181.618 74 179.556 76.0721 179.556 78.6282C179.556 81.1843 181.618 83.2564 184.162 83.2564Z" fill="white"/>
<path d="M153.761 176.436C156.305 176.436 158.367 174.364 158.367 171.807C158.367 169.251 156.305 167.179 153.761 167.179C151.217 167.179 149.155 169.251 149.155 171.807C149.155 174.364 151.217 176.436 153.761 176.436Z" fill="white"/>
<path d="M154.067 194.948C156.611 194.948 158.673 192.876 158.673 190.32C158.673 187.764 156.611 185.691 154.067 185.691C151.523 185.691 149.461 187.764 149.461 190.32C149.461 192.876 151.523 194.948 154.067 194.948Z" fill="white"/>
<path d="M140.147 162.655C142.691 162.655 144.753 160.583 144.753 158.027C144.753 155.471 142.691 153.398 140.147 153.398C137.603 153.398 135.541 155.471 135.541 158.027C135.541 160.583 137.603 162.655 140.147 162.655Z" fill="white"/>
<path d="M175.462 176.436C178.005 176.436 180.068 174.364 180.068 171.807C180.068 169.251 178.005 167.179 175.462 167.179C172.918 167.179 170.855 169.251 170.855 171.807C170.855 174.364 172.918 176.436 175.462 176.436Z" fill="white"/>
<path d="M12.3024 168.723C14.8463 168.723 16.9085 166.651 16.9085 164.095C16.9085 161.539 14.8463 159.467 12.3024 159.467C9.75851 159.467 7.69629 161.539 7.69629 164.095C7.69629 166.651 9.75851 168.723 12.3024 168.723Z" fill="white"/>
<path d="M30.4196 155.66C32.9635 155.66 35.0257 153.588 35.0257 151.032C35.0257 148.476 32.9635 146.404 30.4196 146.404C27.8757 146.404 25.8135 148.476 25.8135 151.032C25.8135 153.588 27.8757 155.66 30.4196 155.66Z" fill="white"/>
<path d="M52.5299 165.636C55.0738 165.636 57.136 163.564 57.136 161.008C57.136 158.452 55.0738 156.38 52.5299 156.38C49.986 156.38 47.9238 158.452 47.9238 161.008C47.9238 163.564 49.986 165.636 52.5299 165.636Z" fill="white"/>
<path d="M53.7555 188.572C56.2994 188.572 58.3616 186.5 58.3616 183.944C58.3616 181.388 56.2994 179.315 53.7555 179.315C51.2116 179.315 49.1494 181.388 49.1494 183.944C49.1494 186.5 51.2116 188.572 53.7555 188.572Z" fill="white"/>
<path d="M7.59243 127.891C10.1363 127.891 12.1985 125.819 12.1985 123.263C12.1985 120.707 10.1363 118.634 7.59243 118.634C5.04855 118.634 2.98633 120.707 2.98633 123.263C2.98633 125.819 5.04855 127.891 7.59243 127.891Z" fill="white"/>
<path d="M17.8317 108.555C20.3756 108.555 22.4378 106.483 22.4378 103.927C22.4378 101.371 20.3756 99.2985 17.8317 99.2985C15.2878 99.2985 13.2256 101.371 13.2256 103.927C13.2256 106.483 15.2878 108.555 17.8317 108.555Z" fill="white"/>
<path d="M18.5456 85.0036C21.0894 85.0036 23.1517 82.9315 23.1517 80.3754C23.1517 77.8193 21.0894 75.7472 18.5456 75.7472C16.0017 75.7472 13.9395 77.8193 13.9395 80.3754C13.9395 82.9315 16.0017 85.0036 18.5456 85.0036Z" fill="white"/>
<path d="M30.4196 30.1854C32.9635 30.1854 35.0257 28.1133 35.0257 25.5572C35.0257 23.0011 32.9635 20.929 30.4196 20.929C27.8757 20.929 25.8135 23.0011 25.8135 25.5572C25.8135 28.1133 27.8757 30.1854 30.4196 30.1854Z" fill="white"/>
</svg>
