<svg width="184" height="184" viewBox="0 0 184 184" fill="none" xmlns="http://www.w3.org/2000/svg">
<path d="M91.917 179.03C140.078 179.03 179.121 139.988 179.121 91.8261C179.121 43.6647 140.078 4.62207 91.917 4.62207C43.7555 4.62207 4.71289 43.6647 4.71289 91.8261C4.71289 139.988 43.7555 179.03 91.917 179.03Z" stroke="white" stroke-width="8.72041" stroke-miterlimit="10"/>
<path d="M130.289 93.7939H122.27C120.79 93.7939 119.596 94.9889 119.596 96.468C119.596 97.9472 120.79 99.1411 122.27 99.1411H130.289C131.768 99.1411 132.964 97.9472 132.964 96.468C132.961 94.9889 131.767 93.7939 130.289 93.7939Z" fill="white"/>
<path d="M114.25 93.7948H106.23C104.751 93.7948 103.555 94.9898 103.555 96.4689C103.555 97.9481 104.751 99.142 106.23 99.142H114.25C115.728 99.142 116.924 97.9481 116.924 96.4689C116.922 94.9898 115.726 93.7948 114.25 93.7948Z" fill="white"/>
<path d="M146.328 93.7939H138.308C136.828 93.7939 135.634 94.9889 135.634 96.468C135.634 97.9472 136.828 99.1411 138.308 99.1411H146.328C147.807 99.1411 149.001 97.9472 149.001 96.468C149.001 94.9889 147.807 93.7939 146.328 93.7939Z" fill="white"/>
<path d="M162.136 93.7939H154.116C152.636 93.7939 151.442 94.9889 151.442 96.468C151.442 97.9472 152.636 99.1411 154.116 99.1411H162.136C163.615 99.1411 164.811 97.9472 164.811 96.468C164.807 94.9889 163.614 93.7939 162.136 93.7939Z" fill="white"/>
<path d="M146.098 93.7939H138.078C136.598 93.7939 135.402 94.9889 135.402 96.468C135.402 97.9472 136.598 99.1411 138.078 99.1411H146.098C147.576 99.1411 148.772 97.9472 148.772 96.468C148.77 94.9889 147.574 93.7939 146.098 93.7939Z" fill="white"/>
<path d="M178.175 93.7939H170.155C168.674 93.7939 167.48 94.9889 167.48 96.468C167.48 97.9472 168.674 99.1411 170.155 99.1411H178.175C179.654 99.1411 180.848 97.9472 180.848 96.468C180.848 94.9889 179.654 93.7939 178.175 93.7939Z" fill="white"/>
<path d="M130.057 93.7948H122.037C120.559 93.7948 119.364 94.9898 119.364 96.4689C119.364 97.9481 120.559 99.142 122.037 99.142H130.059C131.537 99.142 132.732 97.9481 132.732 96.4689C132.732 94.9898 131.536 93.7948 130.057 93.7948Z" fill="white"/>
</svg>
