<svg width="192" height="206" viewBox="0 0 192 206" fill="none" xmlns="http://www.w3.org/2000/svg">
<path d="M13.0982 117.96C5.8444 117.96 0.0175781 123.787 0.0175781 131.04C0.0175781 138.294 5.8444 144.121 13.0982 144.121C20.352 144.121 26.1788 138.294 26.1788 131.04C26.1788 123.906 20.352 117.96 13.0982 117.96ZM13.0982 138.651C8.93618 138.651 5.60657 135.321 5.60657 131.159C5.60657 126.997 8.93618 123.668 13.0982 123.668C17.2602 123.668 20.5898 126.997 20.5898 131.159C20.5898 135.202 17.2602 138.651 13.0982 138.651Z" fill="white"/>
<path d="M100.303 87.4397C88.2699 87.4397 78.502 97.2077 78.502 109.241C78.502 121.274 88.2699 131.042 100.303 131.042C112.336 131.042 122.104 121.274 122.104 109.241C122.104 97.2077 112.336 87.4397 100.303 87.4397ZM100.303 124.954C91.6675 124.954 84.5892 117.876 84.5892 109.241C84.5892 100.605 91.6675 93.527 100.303 93.527C108.938 93.527 116.017 100.605 116.017 109.241C116.017 117.876 108.938 124.954 100.303 124.954Z" fill="white"/>
<path d="M82.8619 88.1498C81.5733 89.2305 80.3921 90.4464 79.4257 91.7974L79.3183 91.5272L70.2983 74.5051L70.1909 74.37C69.4392 73.0191 69.7614 71.2629 70.8352 70.4523C71.909 69.6417 73.305 69.9119 73.9492 71.2629C73.9492 71.2629 73.9492 71.398 74.0566 71.533L77.278 77.6123L82.8619 88.1498Z" fill="white"/>
<path d="M92.1766 83.0786L91.582 64.1429C91.582 64.1429 91.582 64.0183 91.582 63.8937C91.582 62.3988 93.3657 61.2776 95.744 61.2776C98.1223 61.2776 99.906 62.3988 99.906 63.8937C99.906 64.0183 99.906 64.0183 99.906 64.1429L100.104 70.87L100.302 82.5803C97.5278 82.4557 94.7531 82.5803 92.1766 83.0786Z" fill="white"/>
<path d="M121.766 72.7021L121.656 72.7865L118.47 76.6665L113.198 83.0769C111.88 82.4865 110.451 81.9804 109.023 81.5587L117.701 71.0151C117.701 71.0151 117.701 70.9308 117.811 70.8464C118.47 70.003 119.898 69.7499 120.997 70.256C122.095 70.7621 122.425 71.8586 121.766 72.7021Z" fill="white"/>
<path d="M138.312 88.4389C138.312 88.4389 138.204 88.4389 138.097 88.4389L132.837 91.4486L124.465 96.1595C123.821 94.4583 123.07 92.8881 122.104 91.4486L136.058 83.4664L136.165 83.3355C137.346 82.6813 138.634 83.3355 139.171 84.6441C139.922 86.2144 139.493 87.7847 138.312 88.4389Z" fill="white"/>
<path d="M148.223 115.311C147.953 117.047 146.602 118.203 144.98 117.914C144.845 117.914 144.845 117.914 144.71 117.914L137.546 116.902L126.464 115.311C126.734 113.865 126.734 112.419 126.734 110.973C126.734 110.395 126.734 109.817 126.734 109.238L145.52 112.13H145.791C147.413 112.13 148.494 113.721 148.223 115.311Z" fill="white"/>
<path d="M134.683 139.012C133.932 139.921 132.712 140.022 131.867 139.214L131.773 139.113L128.018 135.575L122.104 130.118C123.042 129.107 123.793 127.894 124.451 126.681L134.308 135.98L134.402 136.081C135.341 136.788 135.434 138.102 134.683 139.012Z" fill="white"/>
<path d="M115.2 157.078C113.417 157.555 111.472 156.602 110.986 154.856C110.986 154.856 110.986 154.697 110.986 154.538L108.554 146.282L104.664 133.262C106.933 132.786 109.041 131.992 111.148 131.039L117.47 152.633C117.47 152.633 117.632 152.792 117.632 152.95C118.118 154.697 116.983 156.602 115.2 157.078Z" fill="white"/>
<path d="M95.9419 136.723L89.3044 154.982C89.3044 155.115 89.3044 155.115 89.3044 155.247C88.8303 156.703 86.9339 157.496 85.1955 157.099C83.4571 156.703 82.5088 155.115 82.983 153.659C82.983 153.527 82.983 153.527 83.141 153.395L85.6696 146.647L89.7785 135.4C91.5169 135.93 93.7294 136.459 95.9419 136.723Z" fill="white"/>
<path d="M82.8627 129.728L69.527 139.163L69.41 139.262C68.3572 140.048 66.8365 139.851 66.0176 139.065C65.0818 138.18 65.3158 136.903 66.2516 136.117L66.3686 136.018L71.1647 132.578L79.4703 126.681C80.5231 127.763 81.5759 128.844 82.8627 129.728Z" fill="white"/>
<path d="M74.1418 119.55L55.5521 122.307C55.5521 122.307 55.429 122.307 55.3059 122.307C53.8285 122.452 52.5974 121.291 52.3512 119.695C52.2281 117.953 53.213 116.502 54.5672 116.357C54.6903 116.357 54.6903 116.357 54.8134 116.357L61.3383 115.341L73.1569 113.599C73.4032 115.631 73.6494 117.663 74.1418 119.55Z" fill="white"/>
<path d="M74.1418 98.5802C73.363 100.519 72.5843 102.619 72.1949 104.881L71.9353 104.719L54.153 94.0569C54.153 94.0569 54.0232 94.0569 53.8934 93.8953C52.5954 93.0876 51.9464 90.9875 52.5954 89.372C53.2444 87.7566 54.9318 86.9488 56.2298 87.7566C56.3596 87.7566 56.3596 87.9181 56.4894 87.9181L62.7196 91.6337L74.1418 98.5802Z" fill="white"/>
<path d="M105.492 0.781797L105.221 0.91583L83.6461 16.8657L75.9117 22.4951C75.776 22.4951 75.776 22.6291 75.6403 22.6291C74.1477 23.7014 73.7407 25.7119 74.5548 27.3203C74.8262 27.9904 75.369 28.5266 76.0474 29.0627C76.1831 29.0627 76.1831 29.1967 76.3188 29.1967L84.5959 34.0219L107.663 47.6932L107.799 47.8273H107.935C109.699 48.6315 111.734 48.0953 112.82 46.4869C113.905 44.7445 113.362 42.6 111.734 41.5277C111.734 41.5277 111.598 41.5277 111.598 41.3937C111.598 41.2597 111.463 41.3937 111.463 41.3937L103.593 36.7025L84.5959 25.4438L102.236 12.4426L109.563 6.9473C109.563 6.9473 109.699 6.9473 109.699 6.81327L109.834 6.67923C111.327 5.47294 111.598 3.19438 110.513 1.58599C109.292 0.111634 107.121 -0.156431 105.492 0.781797Z" fill="white"/>
<path d="M100.296 22.0358C94.5979 22.0358 89.1646 22.5654 83.7313 23.6247C84.3939 26.273 84.924 28.9213 85.3216 31.702C90.2248 30.7751 95.128 30.3778 100.296 30.3778C146.28 30.3778 183.651 67.5862 183.651 113.666C183.651 159.614 146.413 196.955 100.296 196.955C63.1909 196.955 31.7838 172.723 20.9173 139.09C18.3994 140.017 15.749 140.811 13.0986 141.473C24.8928 178.417 59.4803 205.164 100.296 205.164C150.919 205.164 191.867 164.248 191.867 113.666C191.867 63.0841 150.786 22.0358 100.296 22.0358Z" fill="white"/>
</svg>
